#!OML:ASF F:\VICON\USERDATA\INSTALL\rory3\rory3.ASF
:FULLY-SPECIFIED
:DEGREES
1817
root -0.091361 14.7435 17.8187 512.029 1.53762 139.25
lowerback -23.9337 -12.1567 7.28981
upperback -14.5134 -15.7346 0.51801
thorax -5.17914 -8.08984 -6.0186
lowerneck -4.89192 -23.7377 -7.00632
upperneck -3.95267 -30.8182 29.7199
head 5.62243 -14.4685 6.8118
rclavicle 9.54166e-014 2.22639e-014
rhumerus -12.8895 -32.8969 20.711
rradius 35.8845
rwrist -24.1708
rhand -19.6369 -52.2373
rfingers 7.12502
rthumb -173.31 457.888
lclavicle 9.54166e-014 2.22639e-014
lhumerus -5.30513 14.4643 0.93921
lradius 25.1459
lwrist 40.095
lhand -31.8308 -11.7591
lfingers 7.12502
lthumb -5.08535 18.1599
rfemur -38.4625 -1.68101 33.122
rtibia 54.7491
rfoot -0.0620948 -20.9496
rtoes 26.1504
lfemur 6.13052 29.6208 -9.48563
ltibia 85.7681
lfoot 12.4205 -2.40435
ltoes 2.43592
1818
root -0.11695 14.7236 17.8444 512.626 0.442587 139.311
lowerback -24.1103 -12.2846 7.17553
upperback -14.4336 -15.9005 0.312355
thorax -5.06587 -8.17755 -6.24263
lowerneck -5.5246 -23.835 -6.86657
upperneck -3.23763 -31.1248 29.4236
head 5.91549 -14.4867 6.56255
rclavicle 1.00187e-013 -1.43125e-013
rhumerus -13.1614 -33.4136 20.5751
rradius 36.0188
rwrist -23.9256
rhand -20.3901 -50.8627
rfingers 7.12502
rthumb -174.037 459.241
lclavicle 1.00187e-013 -1.43125e-013
lhumerus -5.14387 14.6053 0.867975
lradius 25.1462
lwrist 40.2673
lhand -31.8409 -12.0759
lfingers 7.12502
lthumb -5.09507 17.8429
rfemur -38.8406 -1.31848 32.6784
rtibia 55.2517
rfoot -0.631295 -21.8065
rtoes 26.3065
lfemur 5.93784 29.244 -9.8946
ltibia 85.9055
lfoot 12.2306 -2.44438
ltoes 0.906431
1819
root -0.133686 14.7126 17.8728 513.198 -0.541365 139.163
lowerback -24.0895 -12.4475 6.68566
upperback -14.3352 -16.0377 0.323441
thorax -4.82685 -8.20166 -6.03243
lowerneck -4.63593 -23.687 -7.25978
upperneck -5.18301 -30.4615 30.9286
head 5.42971 -14.4201 7.29071
rclavicle 8.26944e-014 2.54444e-014
rhumerus -13.2895 -34.3325 20.6701
rradius 36.0072
rwrist -23.3773
rhand -19.5231 -51.7762
rfingers 7.12502
rthumb -173.2 458.353
lclavicle 8.26944e-014 2.54444e-014
lhumerus -5.09437 15.2164 1.0586
lradius 25.08
lwrist 40.1374
lhand -31.6906 -12.0232
lfingers 7.12502
lthumb -4.95 17.899
rfemur -39.1211 -1.15959 31.9696
rtibia 55.4864
rfoot -1.95635 -22.2026
rtoes 27.9014
lfemur 5.84284 29.0219 -10.4248
ltibia 85.927
lfoot 12.1481 -2.55254
ltoes -1.0419
1820
root -0.131502 14.7258 17.927 514.062 -1.01435 139.426
lowerback -24.6324 -12.3672 7.32753
upperback -14.1973 -16.0856 0.311094
thorax -4.62313 -8.26272 -6.48405
lowerneck -6.40361 -23.8089 -6.8
upperneck -3.12334 -31.1519 29.6029
head 6.12654 -14.4089 6.49163
rclavicle 3.81667e-014 7.31528e-014
rhumerus -13.3034 -35.266 20.2691
rradius 35.9995
rwrist -22.6112
rhand -19.3753 -51.515
rfingers 7.12502
rthumb -173.057 458.619
lclavicle 3.81667e-014 7.31528e-014
lhumerus -5.14964 15.8087 0.813195
lradius 25.0311
lwrist 39.8561
lhand -31.2881 -11.602
lfingers 7.12502
lthumb -4.56129 18.3289
rfemur -39.5721 -1.54776 32.4341
rtibia 55.5213
rfoot -0.685345 -21.9532
rtoes 25.1203
lfemur 5.42701 29.0554 -10.3268
ltibia 85.9483
lfoot 12.2994 -2.24219
ltoes 0.391206
1821
root -0.0965774 14.7788 17.9825 514.7 -1.59742 139.66
lowerback -24.6666 -12.3252 7.64376
upperback -14.1723 -16.092 0.345121
thorax -4.66624 -8.28475 -6.60657
lowerneck -5.57426 -23.6647 -7.10451
upperneck -4.62052 -30.5909 30.7086
head 5.70932 -14.3464 7.06582
rclavicle -1.11319e-014 2.22639e-013
rhumerus -13.4456 -35.744 20.2541
rradius 36.0716
rwrist -22.1151
rhand -19.2093 -50.9912
rfingers 7.12502
rthumb -172.897 459.148
lclavicle -1.11319e-014 2.22639e-013
lhumerus -5.10375 15.8919 0.856385
lradius 24.9996
lwrist 39.9761
lhand -30.8668 -11.1828
lfingers 7.12502
lthumb -4.15455 18.7564
rfemur -39.2872 -2.49216 32.7894
rtibia 55.2832
rfoot -0.508921 -21.2494
rtoes 25.1602
lfemur 5.46031 29.002 -10.1455
ltibia 85.622
lfoot 12.4494 -2.23724
ltoes 1.11318
1822
root -0.0904546 14.7926 18.0216 515.165 -2.21183 139.66
lowerback -24.4097 -12.3437 7.49883
upperback -14.1816 -16.0748 0.440635
thorax -4.71532 -8.25783 -6.38422
lowerneck -6.62172 -23.8566 -6.91498
upperneck -3.47971 -31.1397 29.665
head 6.0806 -14.4324 6.50254
rclavicle 4.77083e-015 4.77083e-014
rhumerus -13.5656 -36.0854 20.4145
rradius 36.1909
rwrist -21.9012
rhand -18.107 -52.4282
rfingers 7.12502
rthumb -171.833 457.75
lclavicle 4.77083e-015 4.77083e-014
lhumerus -5.14662 15.5724 1.06994
lradius 25.0378
lwrist 40.3463
lhand -30.8936 -10.9662
lfingers 7.12502
lthumb -4.18039 18.9726
rfemur -38.9529 -2.69395 32.7445
rtibia 55.1313
rfoot -0.499713 -21.2929
rtoes 26.9502
lfemur 5.66594 29.0237 -10.1031
ltibia 85.4374
lfoot 12.3619 -2.78463
ltoes -0.633627
1823
root -0.106761 14.7726 18.0627 515.615 -2.8262 139.655
lowerback -24.5961 -12.3532 7.31303
upperback -13.7849 -16.1331 0.406886
thorax -4.12407 -8.25564 -6.44569
lowerneck -7.00117 -23.9127 -6.44429
upperneck -4.11786 -31.0845 29.7683
head 5.88011 -14.4546 6.47942
rclavicle 1.90833e-014 6.99722e-014
rhumerus -14.004 -37.0832 20.4184
rradius 36.2767
rwrist -21.5006
rhand -18.443 -52.2073
rfingers 7.12502
rthumb -172.157 457.958
lclavicle 1.90833e-014 6.99722e-014
lhumerus -4.98382 16.0323 1.10469
lradius 24.9447
lwrist 40.1417
lhand -31.3062 -11.1721
lfingers 7.12502
lthumb -4.57878 18.7584
rfemur -38.8391 -2.63677 32.7007
rtibia 55.0821
rfoot -0.11739 -21.6435
rtoes 27.0949
lfemur 5.7519 29.0341 -10.0247
ltibia 85.4866
lfoot 12.3031 -3.21592
ltoes -1.77556
1824
root -0.11593 14.7686 18.1065 516.145 -3.38564 139.733
lowerback -24.5565 -12.3124 7.4205
upperback -13.6812 -16.1169 0.422159
thorax -4.04587 -8.249 -6.48626
lowerneck -6.88834 -23.9113 -6.47014
upperneck -4.79567 -30.9228 30.2157
head 5.72181 -14.4521 6.66495
rclavicle -8.90555e-014 6.67916e-014
rhumerus -14.2709 -37.6856 20.428
rradius 36.4031
rwrist -21.1259
rhand -20.0472 -50.2388
rfingers 7.12502
rthumb -173.706 459.875
lclavicle -8.90555e-014 6.67916e-014
lhumerus -4.85917 16.7655 1.30475
lradius 24.7647
lwrist 39.2622
lhand -31.4879 -11.4926
lfingers 7.12502
lthumb -4.75428 18.434
rfemur -38.7674 -2.79203 32.8214
rtibia 55.1982
rfoot -0.114235 -21.7278
rtoes 25.8531
lfemur 5.84513 29.032 -9.86816
ltibia 85.5386
lfoot 12.2273 -3.36879
ltoes -1.96649
1825
root -0.12283 14.7723 18.1459 516.718 -4.02539 139.766
lowerback -24.6477 -12.2836 7.49115
upperback -13.569 -16.1122 0.425038
thorax -3.89181 -8.24215 -6.5536
lowerneck -8.02002 -24.064 -6.21268
upperneck -3.80475 -31.397 29.5149
head 6.10375 -14.496 6.20099
rclavicle -2.22639e-014 1.43125e-013
rhumerus -14.5038 -38.3203 20.4461
rradius 36.528
rwrist -20.6902
rhand -20.1201 -50.0678
rfingers 7.12502
rthumb -173.776 460.044
lclavicle -2.22639e-014 1.43125e-013
lhumerus -4.78705 17.4323 1.48998
lradius 24.7092
lwrist 38.6735
lhand -31.3821 -11.3037
lfingers 7.12502
lthumb -4.65209 18.6253
rfemur -38.6763 -3.06295 32.8903
rtibia 55.2738
rfoot -0.0918394 -21.7353
rtoes 26.3721
lfemur 5.92271 28.945 -9.85185
ltibia 85.54
lfoot 12.2517 -3.14924
ltoes -0.502692
1826
root -0.155269 14.7449 18.1788 517.251 -4.62682 139.771
lowerback -24.8786 -12.2526 7.48025
upperback -13.3406 -16.1143 0.44143
thorax -3.50834 -8.22256 -6.62002
lowerneck -7.5278 -24.0526 -6.05081
upperneck -5.29671 -31.0211 30.1979
head 5.61507 -14.5189 6.54801
rclavicle 1.63799e-013 -2.13097e-013
rhumerus -14.7334 -39.4259 20.4652
rradius 36.5608
rwrist -19.7396
rhand -19.2386 -51.147
rfingers 7.12502
rthumb -172.925 458.991
lclavicle 1.63799e-013 -2.13097e-013
lhumerus -4.78267 17.6116 1.54827
lradius 24.7955
lwrist 38.9918
lhand -31.2734 -10.9263
lfingers 7.12502
lthumb -4.54712 19.0049
rfemur -38.7716 -3.0422 32.9423
rtibia 55.4893
rfoot 0.303399 -22.0031
rtoes 26.2175
lfemur 5.94943 28.8788 -9.8089
ltibia 85.6748
lfoot 12.3663 -2.74516
ltoes 1.77229
1827
root -0.14327 14.7601 18.2242 517.887 -4.99914 140.105
lowerback -24.8634 -12.2138 7.76188
upperback -13.3932 -16.0963 0.714732
thorax -3.56804 -8.20786 -6.45788
lowerneck -6.34466 -23.9131 -6.45985
upperneck -7.03478 -30.3701 31.2265
head 5.06065 -14.4838 7.17826
rclavicle 1.11319e-014 -1.7175e-013
rhumerus -14.6939 -40.5017 20.4678
rradius 36.6177
rwrist -18.6482
rhand -19.7516 -50.2046
rfingers 7.12502
rthumb -173.42 459.918
lclavicle 1.11319e-014 -1.7175e-013
lhumerus -4.92297 17.9655 1.80464
lradius 24.7933
lwrist 38.8393
lhand -31.0535 -10.7995
lfingers 7.12502
lthumb -4.3348 19.1362
rfemur -38.7168 -3.04089 33.3606
rtibia 55.4162
rfoot 0.174371 -22.0157
rtoes 26.5929
lfemur 5.89869 28.9799 -9.27294
ltibia 85.6022
lfoot 12.6129 -2.67234
ltoes 1.9463
1828
root -0.143671 14.7766 18.2629 518.445 -5.90486 139.472
lowerback -24.4949 -12.3592 7.0664
upperback -13.6861 -16.0764 0.722897
thorax -3.86239 -8.15972 -6.00096
lowerneck -4.92501 -23.5834 -7.14269
upperneck -8.6355 -29.4694 32.3694
head 4.5338 -14.3247 7.94806
rclavicle -1.52667e-013 1.27222e-014
rhumerus -14.5082 -41.0157 20.4306
rradius 36.7491
rwrist -18.0943
rhand -19.5557 -50.7292
rfingers 7.12502
rthumb -173.231 459.399
lclavicle -1.52667e-013 1.27222e-014
lhumerus -5.16242 17.8852 2.11063
lradius 24.7946
lwrist 38.7266
lhand -30.9743 -11.0685
lfingers 7.12502
lthumb -4.25828 18.8687
rfemur -38.657 -3.34841 32.5267
rtibia 55.4985
rfoot -0.0850163 -21.7881
rtoes 27.3167
lfemur 6.12953 28.854 -10.1894
ltibia 85.312
lfoot 12.6006 -2.43321
ltoes 1.21533
